<svg width="55" height="55" viewBox="0 0 55 55" fill="none" xmlns="http://www.w3.org/2000/svg">
<mask id="mask0_656_2291" style="mask-type:alpha" maskUnits="userSpaceOnUse" x="0" y="0" width="55" height="55">
<rect width="55" height="55" fill="#D9D9D9"/>
</mask>
<g mask="url(#mask0_656_2291)">
</g>
<path d="M12.9989 45.9953L9.99927 8.49951H45.9952L42.9956 45.9953L27.9973 50.4948L12.9989 45.9953Z" fill="#1172B8"/>
<path d="M42.9956 11.4993H27.9973V48.2452L39.996 44.4956L42.9956 11.4993Z" fill="#33AADD"/>
<path d="M33.2467 30.247H18.2484L17.4985 24.9976L29.4971 21.248H17.4985L16.7485 16.7485H39.9959L39.246 21.9979L29.4971 25.7475H38.4961L36.9963 39.9959L27.9973 42.9956L18.9983 39.9959L18.2484 32.4968H22.7479L23.4978 36.2464L27.9973 37.7462L32.4968 36.2464L33.2467 30.247Z" fill="white"/>
</svg>
