<svg width="62" height="62" viewBox="0 0 62 62" fill="none" xmlns="http://www.w3.org/2000/svg">
<path d="M53.6577 38.7968V38.7622C48.7674 42.6948 40.6159 45.1796 31.0006 45.1796C22.6006 45.1796 15.3184 43.2828 10.3512 40.1814C9.64619 39.7351 8.98381 39.2625 8.37094 38.7627V38.7828C8.36233 38.7758 8.35259 38.7693 8.34375 38.7622V49.1893C8.34375 55.151 18.5073 60.0018 31.0008 60.0018C43.4942 60.0018 53.6578 55.151 53.6578 49.1893V42.7901L53.6748 38.784C53.6691 38.7884 53.6632 38.7923 53.6577 38.7968Z" fill="black"/>
<path d="M31.0008 40.6109C43.4942 40.6109 53.6578 35.76 53.6578 29.7985V29.2108V24.8687V22.9796L53.6748 21.7973C53.6692 21.8017 53.6632 21.8057 53.6578 21.8101V21.776C48.7675 25.7086 40.6161 28.1934 31.0008 28.1934C22.6044 28.1934 15.3249 26.2981 10.3578 23.199C9.65049 22.7513 8.98585 22.2772 8.37094 21.7759V21.7965C8.36233 21.7895 8.35259 21.783 8.34375 21.7759V24.8686V29.2107V29.7984C8.34375 35.7601 18.5073 40.6109 31.0008 40.6109Z" fill="black"/>
<path d="M31.0009 23.625C43.4943 23.625 53.6579 18.7742 53.6579 12.8126C53.6579 12.6419 53.6207 12.4757 53.6044 12.307C53.5097 11.3397 53.1689 10.4027 52.5737 9.51771C49.6456 5.16269 41.0863 2 31.0009 2C20.9154 2 12.3562 5.16269 9.42823 9.5176C8.8328 10.4026 8.49204 11.3396 8.39756 12.3069C8.38091 12.4755 8.34375 12.6418 8.34375 12.8125C8.34386 18.7741 18.5075 23.625 31.0009 23.625Z" fill="black"/>
</svg>
