<svg width="55" height="55" viewBox="0 0 55 55" fill="none" xmlns="http://www.w3.org/2000/svg">
<mask id="mask0_658_2607" style="mask-type:alpha" maskUnits="userSpaceOnUse" x="0" y="0" width="55" height="55">
<rect width="55" height="55" fill="#D9D9D9"/>
</mask>
<g mask="url(#mask0_658_2607)">
<g clip-path="url(#clip0_658_2607)">
<path d="M4.96265 4.96265H50V50H4.96265V4.96265Z" fill="#F0DB4F"/>
<path d="M46.3077 39.2592C45.9781 37.2043 44.6381 35.479 40.6695 33.8693C39.291 33.2357 37.754 32.782 37.296 31.7373C37.1333 31.1294 37.1119 30.7869 37.2146 30.4187C37.51 29.2243 38.9356 28.8518 40.0658 29.1943C40.7936 29.4384 41.4829 29.9992 41.8982 30.8939C43.8418 29.6353 43.8375 29.6439 45.1946 28.7791C44.698 28.0085 44.4326 27.6531 44.1072 27.3235C42.9385 26.0178 41.3459 25.3457 38.7986 25.397C38.3577 25.4527 37.9125 25.5126 37.4715 25.5683C36.2 25.8894 34.9884 26.5572 34.2778 27.452C32.1458 29.8708 32.7537 34.1048 35.3481 35.8472C37.9039 37.7652 41.6584 38.2018 42.1379 39.9956C42.6045 42.1918 40.524 42.9025 38.4561 42.6499C36.9321 42.3331 36.0844 41.5582 35.1682 40.1497C33.4815 41.1258 33.4815 41.1258 31.7477 42.1233C32.1587 43.0224 32.591 43.4291 33.2803 44.2082C36.5425 47.5175 44.7066 47.3549 46.1708 42.346C46.2306 42.1747 46.6246 41.0273 46.3077 39.2592V39.2592ZM29.4401 25.6624H25.2275C25.2275 29.3014 25.2104 32.9146 25.2104 36.5536C25.2104 38.8697 25.3303 40.9931 24.9535 41.6438C24.3371 42.9238 22.7402 42.7655 22.0124 42.5171C21.2718 42.1532 20.8951 41.6352 20.4584 40.9032C20.3385 40.6934 20.2486 40.5307 20.2186 40.5179C19.0756 41.2157 17.9368 41.9178 16.7937 42.6156C17.3631 43.7844 18.2022 44.799 19.2767 45.4582C20.8822 46.4215 23.0398 46.7169 25.296 46.1989C26.7645 45.7708 28.0316 44.8846 28.6952 43.5361C29.6542 41.768 29.4487 39.6274 29.4401 37.26C29.4615 33.3984 29.4401 29.5368 29.4401 25.6624Z" fill="#323330"/>
</g>
</g>
<defs>
<clipPath id="clip0_658_2607">
<rect width="45.0373" height="45.0373" fill="white" transform="translate(4.96265 4.96265)"/>
</clipPath>
</defs>
</svg>
