<svg width="62" height="62" viewBox="0 0 62 62" fill="none" xmlns="http://www.w3.org/2000/svg">
<g clip-path="url(#clip0_1457_32447)">
<path d="M31 62C48.1208 62 62 48.1208 62 31C62 13.8792 48.1208 0 31 0C13.8792 0 0 13.8792 0 31C0 48.1208 13.8792 62 31 62Z" fill="#13AA52"/>
<path d="M39.2798 27.2122C37.3218 18.5703 32.6942 15.7289 32.1959 14.6433C31.6509 13.8773 31.0988 12.515 31.0988 12.515C31.0897 12.492 31.0751 12.4515 31.0582 12.4121C31.0019 13.178 30.9728 13.4735 30.2487 14.2461C29.1274 15.1228 23.3742 19.9502 22.9062 29.7685C22.4696 38.9256 29.5209 44.3821 30.4745 45.0778L30.5829 45.1547V45.148C30.589 45.194 30.8856 47.3277 31.0939 49.5885H31.8411C32.0164 47.9904 32.2791 46.4031 32.6282 44.8337L32.6887 44.7944C33.1153 44.4885 33.522 44.1559 33.9063 43.7984L33.9499 43.759C35.977 41.8863 39.6213 37.5548 39.5856 30.6488C39.5781 29.4968 39.4758 28.3474 39.2798 27.2122ZM31.0146 39.9077C31.0146 39.9077 31.0146 27.0645 31.4384 27.0669C31.769 27.0669 32.1971 43.6331 32.1971 43.6331C31.6086 43.5623 31.0146 40.9067 31.0146 39.9077Z" fill="white"/>
</g>
<defs>
<clipPath id="clip0_1457_32447">
<rect width="62" height="62" fill="white"/>
</clipPath>
</defs>
</svg>
