<svg width="55" height="55" viewBox="0 0 55 55" fill="none" xmlns="http://www.w3.org/2000/svg">
<mask id="mask0_658_2891" style="mask-type:alpha" maskUnits="userSpaceOnUse" x="0" y="0" width="55" height="55">
<rect width="55" height="55" fill="#D9D9D9"/>
</mask>
<g mask="url(#mask0_658_2891)">
</g>
<path d="M19.9515 41.1813C19.7319 40.7765 19.6541 40.3097 19.7306 39.8555H10.3797L24.2695 15.4017L30.1229 25.8306L31.9638 24.457L26.1836 14.0646C25.9902 13.7093 25.7125 13.407 25.3747 13.1844C25.037 12.9618 24.6497 12.8257 24.247 12.7881C23.8414 12.8048 23.4488 12.9358 23.1144 13.1658C22.78 13.3959 22.5174 13.7158 22.3568 14.0885L8.28263 38.8492C8.06856 39.1963 7.94516 39.5917 7.92376 39.9989C7.90237 40.4062 7.98367 40.8123 8.16019 41.1799C8.37426 41.521 8.6799 41.795 9.04224 41.9707C9.40458 42.1464 9.80901 42.2167 10.2094 42.1735H21.9951C21.5955 42.218 21.1915 42.1493 20.8291 41.975C20.4667 41.8008 20.1607 41.5282 19.9459 41.1883L19.9515 41.1813Z" fill="#00C58E"/>
<path d="M46.6744 38.8983L35.3489 18.7878C35.1648 18.4323 34.8941 18.129 34.5618 17.9059C34.2294 17.6828 33.8462 17.5471 33.4475 17.5112C33.0513 17.528 32.6681 17.6569 32.3422 17.8829C32.0163 18.1088 31.7613 18.4226 31.6066 18.7878L30.1091 21.1804V25.8248L33.4461 20.0952L44.6365 39.899H40.3791C40.4468 40.3 40.3868 40.7121 40.2073 41.077L40.1708 41.1502C39.9402 41.4771 39.6326 41.7422 39.2751 41.9219C38.9177 42.1016 38.5215 42.1904 38.1216 42.1804H44.7843C45.1844 42.1915 45.581 42.1032 45.9386 41.9234C46.2962 41.7436 46.6037 41.478 46.8335 41.1502C47.0133 40.795 47.0924 40.3973 47.0622 40.0003C47.0319 39.6033 46.8934 39.2222 46.6618 38.8983H46.6744Z" fill="#108775"/>
<path d="M40.4705 41.1337L40.5071 41.0605L40.6056 40.8649C40.7257 40.551 40.7554 40.2097 40.6914 39.8797C40.6286 39.5196 40.4997 39.1741 40.3114 38.8607L31.4644 23.5199L30.1274 21.1892H30.1034L28.7537 23.5086L19.9194 38.8495C19.7472 39.1624 19.631 39.5029 19.576 39.8558C19.4926 40.3085 19.566 40.7762 19.7842 41.1816C20.0066 41.5228 20.3194 41.7955 20.6877 41.9695C21.0559 42.1434 21.4652 42.2117 21.87 42.1668H38.3481C38.7602 42.1799 39.1692 42.0916 39.5392 41.9098C39.9093 41.728 40.229 41.4581 40.4705 41.1239V41.1337ZM30.102 25.8435L38.2003 39.867H22.0037L30.102 25.8435Z" fill="#2F495E"/>
</svg>
