<svg width="61" height="62" viewBox="0 0 61 62" fill="none" xmlns="http://www.w3.org/2000/svg">
<g clip-path="url(#clip0_1457_32450)">
<path d="M59.8886 37.1229C59.5282 36.0312 58.5839 35.2708 57.3628 35.0884C56.7871 35.0024 56.1277 35.0391 55.3473 35.1999C53.9872 35.4805 52.9782 35.5874 52.2418 35.608C55.0214 30.9151 57.2816 25.5634 58.5828 20.5257C60.6868 12.3799 59.5625 8.66892 58.2486 6.99039C54.7716 2.5475 49.6986 0.160736 43.5786 0.0877057C40.3138 0.0477854 37.4478 0.69238 35.9527 1.15592C34.5606 0.910298 33.0639 0.77316 31.4933 0.747799C28.5493 0.700834 25.9482 1.34261 23.7256 2.66162C22.4951 2.24551 20.5202 1.65892 18.2396 1.28461C12.8757 0.404015 8.55259 1.09017 5.39044 3.32406C1.56138 6.02878 -0.213661 10.7281 0.114624 17.2915C0.218886 19.3753 1.38456 25.7156 3.21995 31.7285C4.27478 35.1847 5.3996 38.0547 6.56315 40.2597C8.21327 43.3864 9.97892 45.2276 11.9611 45.8889C13.072 46.259 15.0906 46.5182 17.2136 44.75C17.4828 45.076 17.8418 45.3998 18.3183 45.7006C18.9234 46.0822 19.6633 46.394 20.4023 46.5788C23.0655 47.2446 25.56 47.0781 27.6882 46.1449C27.7014 46.5234 27.7115 46.885 27.7199 47.1974C27.734 47.7039 27.7481 48.2005 27.7667 48.665C27.8928 51.8056 28.1065 54.2475 28.7396 55.9561C28.7743 56.05 28.821 56.1933 28.8704 56.3452C29.1862 57.3122 29.7143 58.9311 31.058 60.1989C32.4493 61.5123 34.1323 61.915 35.6737 61.915C36.4467 61.915 37.1843 61.8136 37.8313 61.675C40.1373 61.1807 42.7563 60.4279 44.6508 57.7302C46.4421 55.18 47.3128 51.339 47.4704 45.2868C47.4908 45.1156 47.5096 44.9522 47.5277 44.7965L47.5652 44.4767L47.9872 44.5138L48.0959 44.5211C50.4447 44.6281 53.3166 44.1301 55.0803 43.3108C56.474 42.6641 60.9402 40.3062 59.8886 37.1229Z" fill="#212529"/>
<path d="M55.8654 37.7423C48.8817 39.1829 48.4014 36.8185 48.4014 36.8185C55.7749 25.8773 58.8575 11.989 56.1976 8.58994C48.9406 -0.682122 36.3786 3.703 36.1689 3.81666L36.1015 3.82887C34.7217 3.54238 33.1777 3.3719 31.4421 3.34348C28.2823 3.29182 25.8852 4.17195 24.0663 5.55131C24.0663 5.55131 1.65694 -3.6806 2.69933 17.162C2.92101 21.596 9.05464 50.7121 16.3704 41.9177C19.0443 38.7018 21.6281 35.9828 21.6281 35.9828C22.9112 36.8352 24.4474 37.2701 26.0578 37.1139L26.183 37.0078C26.144 37.407 26.1619 37.7975 26.233 38.2598C24.3483 40.3655 24.9023 40.7351 21.1347 41.5108C17.3224 42.2965 19.5619 43.6951 21.0241 44.061C22.7968 44.5041 26.8978 45.132 29.6687 41.2529L29.5584 41.6956C30.2967 42.2871 30.8152 45.5427 30.7283 48.4942C30.6414 51.4455 30.5834 53.4718 31.1651 55.0545C31.7472 56.6373 32.327 60.1984 37.2799 59.1372C41.4182 58.2503 43.5629 55.952 43.8613 52.1183C44.0729 49.3929 44.5522 49.7959 44.5822 47.3591L44.9667 46.2056C45.4098 42.5111 45.0371 41.3191 47.5866 41.8736L48.2065 41.928C50.0828 42.0133 52.5391 41.6261 53.9806 40.9561C57.0846 39.5157 58.9256 37.1104 55.8649 37.7423H55.8654Z" fill="#336791"/>
<path d="M25.3764 19.1442C24.7471 19.0567 24.1771 19.1377 23.8888 19.3561C23.7268 19.4789 23.6765 19.6212 23.6629 19.7191C23.6267 19.9786 23.8085 20.2655 23.9203 20.4135C24.2363 20.8324 24.698 21.1203 25.155 21.1837C25.2212 21.1931 25.2872 21.1973 25.3527 21.1973C26.1147 21.1973 26.8077 20.6039 26.8687 20.166C26.945 19.6174 26.1487 19.2516 25.3764 19.1442ZM46.2251 19.1616C46.165 18.7317 45.3999 18.6091 44.6739 18.7101C43.9487 18.811 43.2456 19.1384 43.3044 19.5693C43.3513 19.9044 43.9565 20.4764 44.6727 20.4764C44.7333 20.4764 44.7943 20.4724 44.8558 20.4637C45.3339 20.3975 45.6848 20.0939 45.8515 19.9189C46.1051 19.6522 46.2521 19.3549 46.2251 19.1616Z" fill="white"/>
<path d="M58.1958 37.5784C57.9295 36.7731 57.0724 36.5141 55.6484 36.8081C51.4204 37.6807 49.9062 37.0763 49.4091 36.7102C52.6955 31.7037 55.399 25.6518 56.8575 20.0055C57.5484 17.3308 57.93 14.8468 57.9612 12.8222C57.9957 10.6 57.6172 8.96704 56.8366 7.96951C53.6895 3.94813 49.0705 1.79102 43.4793 1.73185C39.6354 1.68864 36.3878 2.67232 35.7582 2.94895C34.4324 2.61925 32.9871 2.41683 31.4135 2.391C28.528 2.34427 26.0337 3.03513 23.9686 4.44337C23.0716 4.10945 20.7534 3.31363 17.9184 2.8569C13.0171 2.06788 9.12228 2.66575 6.34289 4.63476C3.02645 6.98441 1.49539 11.1845 1.79198 17.118C1.89178 19.1143 3.02927 25.2554 4.82427 31.1366C7.18708 38.8774 9.7556 43.2595 12.458 44.161C12.7743 44.2664 13.139 44.3401 13.5412 44.3401C14.527 44.3401 15.7357 43.8958 16.9931 42.384C18.5269 40.5441 20.1135 38.7488 21.7509 37.0004C22.8133 37.5706 23.9804 37.889 25.174 37.921C25.1763 37.9522 25.1794 37.9834 25.1822 38.0144C24.9767 38.2594 24.7755 38.508 24.5787 38.76C23.7516 39.8099 23.5795 40.0285 20.9173 40.5766C20.16 40.733 18.1487 41.1475 18.1191 42.5573C18.0872 44.0978 20.4967 44.7447 20.7712 44.8133C21.7279 45.0528 22.6496 45.1709 23.5286 45.1709C25.6662 45.1709 27.5474 44.4684 29.0507 43.1089C29.0044 48.6006 29.2334 54.0119 29.8928 55.6606C30.4329 57.0104 31.7521 60.3089 35.9193 60.3087C36.5308 60.3087 37.2038 60.2376 37.9442 60.0788C42.2934 59.1466 44.1821 57.2243 44.9127 52.9864C45.3036 50.7215 45.9745 45.3133 46.2901 42.4122C46.9561 42.62 47.8135 42.7151 48.7403 42.7149C50.6734 42.7149 52.904 42.3042 54.3028 41.6549C55.8743 40.9251 58.71 39.1343 58.1958 37.5784ZM47.8386 17.9752C47.8243 18.8316 47.7064 19.6091 47.5815 20.4206C47.4469 21.2935 47.3079 22.1959 47.2729 23.2914C47.2384 24.3575 47.3715 25.4658 47.5002 26.5378C47.7604 28.7029 48.0274 30.9319 46.9939 33.1312C46.8222 32.8271 46.6693 32.5127 46.536 32.1898C46.4076 31.8784 46.1286 31.3783 45.7423 30.686C44.2397 27.9912 40.7208 21.6805 42.5221 19.1054C43.0587 18.3389 44.4205 17.5508 47.8386 17.9752ZM43.6953 3.46603C48.7051 3.57663 52.668 5.45077 55.4737 9.03608C57.6256 11.7861 55.256 24.2992 48.3961 35.0944C48.3271 35.0067 48.2577 34.9192 48.188 34.8321L48.1011 34.7236C49.8738 31.796 49.5272 28.8995 49.2187 26.3314C49.0918 25.2775 48.9721 24.2821 49.0026 23.347C49.0341 22.3561 49.1651 21.506 49.2919 20.6841C49.4476 19.6713 49.6061 18.6233 49.5624 17.3879C49.5951 17.2582 49.6082 17.1051 49.5911 16.9234C49.4795 15.7387 48.127 12.1931 45.3701 8.98395C43.8621 7.22863 41.6629 5.26432 38.6602 3.93944C39.9518 3.67174 41.7179 3.42212 43.6953 3.46603ZM15.6624 41.2775C14.2769 42.9434 13.3202 42.624 13.0056 42.5193C10.9556 41.8355 8.57678 37.5025 6.47956 30.6315C4.66483 24.6862 3.60436 18.7078 3.52029 17.0314C3.25541 11.7295 4.54061 8.03455 7.34042 6.04887C11.897 2.81768 19.3884 4.7517 22.3986 5.73256C22.3554 5.7753 22.3103 5.81522 22.2675 5.85866C17.3278 10.8473 17.4449 19.3705 17.4572 19.8916C17.4567 20.0926 17.4736 20.3772 17.4966 20.7686C17.5816 22.2022 17.7399 24.8703 17.3172 27.8918C16.9246 30.6996 17.7901 33.4478 19.6915 35.4318C19.8867 35.635 20.0917 35.8285 20.3061 36.0114C19.4597 36.9178 17.6204 38.9223 15.6624 41.2775ZM20.941 34.2344C19.4086 32.6353 18.7125 30.411 19.0312 28.1313C19.4774 24.9396 19.3127 22.1597 19.2242 20.6663C19.2118 20.4573 19.2007 20.2741 19.1944 20.1297C19.916 19.4898 23.2602 17.6981 25.645 18.2445C26.7332 18.4937 27.3964 19.2348 27.672 20.5094C29.0988 27.1087 27.8608 29.8592 26.8661 32.0696C26.6611 32.5249 26.4674 32.9554 26.3021 33.4006L26.1739 33.7448C25.8493 34.6151 25.5473 35.4243 25.3602 36.1926C23.731 36.188 22.1461 35.4919 20.941 34.2342V34.2344ZM21.1911 43.1343C20.7154 43.0155 20.2875 42.8091 20.0365 42.6379C20.2462 42.5393 20.6193 42.4049 21.2665 42.2716C24.3983 41.627 24.8821 41.1719 25.9383 39.8308C26.1804 39.5232 26.4549 39.1747 26.8351 38.7501L26.8356 38.7497C27.4018 38.1156 27.6608 38.2232 28.1304 38.4181C28.5111 38.5754 28.8819 39.0526 29.0322 39.5777C29.1033 39.8256 29.1831 40.2962 28.9218 40.6625C26.7154 43.7519 23.5001 43.7122 21.1911 43.1343ZM37.5817 58.3867C33.7503 59.2076 32.3937 57.2527 31.4997 55.0179C30.9227 53.5751 30.6391 47.069 30.8403 39.8841C30.8429 39.7885 30.8293 39.6962 30.803 39.6094C30.7794 39.4378 30.7437 39.2681 30.6959 39.1017C30.3967 38.0562 29.6676 37.1817 28.7929 36.8192C28.4453 36.6752 27.8075 36.411 27.0411 36.6071C27.2045 35.9336 27.4879 35.173 27.7953 34.3495L27.9242 34.0031C28.0694 33.6126 28.2516 33.208 28.4442 32.7797C29.4851 30.4671 30.9108 27.2996 29.3635 20.1438C28.7839 17.4635 26.8485 16.1546 23.9146 16.4587C22.1558 16.6407 20.5465 17.3503 19.7439 17.7572C19.5713 17.8446 19.4135 17.9291 19.266 18.0113C19.49 15.3108 20.3363 10.264 23.5023 7.07083C25.4957 5.06073 28.1504 4.06789 31.3849 4.12143C37.758 4.22569 41.8449 7.49633 44.1514 10.2219C46.1389 12.5704 47.2151 14.9363 47.6446 16.2123C44.4146 15.8838 42.2178 16.5214 41.1043 18.1135C38.6816 21.5767 42.4296 28.2983 44.231 31.5288C44.5614 32.1208 44.8464 32.6325 44.9361 32.8499C45.5227 34.2715 46.2822 35.2207 46.8366 35.9134C47.0066 36.1257 47.1714 36.3317 47.2968 36.5115C46.3186 36.7936 44.5614 37.4452 44.7215 40.7025C44.5924 42.3368 43.674 49.9889 43.2074 52.6924C42.5914 56.2641 41.2771 57.5944 37.5817 58.3869V58.3867ZM53.5742 40.0853C52.5738 40.5496 50.8998 40.8978 49.3095 40.9727C47.553 41.0549 46.6588 40.776 46.4484 40.6043C46.3498 38.5745 47.1052 38.3624 47.9048 38.1379C48.0304 38.1027 48.153 38.0682 48.2714 38.0269C48.3449 38.0867 48.4254 38.1462 48.5137 38.2044C49.9255 39.1362 52.4435 39.2367 55.9985 38.5029L56.0375 38.4951C55.558 38.9434 54.7375 39.545 53.5742 40.0853Z" fill="white"/>
</g>
<defs>
<clipPath id="clip0_1457_32450">
<rect width="60.1152" height="62" fill="white"/>
</clipPath>
</defs>
</svg>
