<svg width="62" height="62" viewBox="0 0 62 62" fill="none" xmlns="http://www.w3.org/2000/svg">
<path d="M30.7716 5.16553C17.6357 5.16553 18.456 10.8621 18.456 10.8621L18.4706 16.7636H31.0059V18.5356H13.4916C13.4916 18.5356 5.08594 17.5823 5.08594 30.8366C5.08594 44.0909 12.4226 43.6208 12.4226 43.6208H16.8012V37.4703C16.8012 37.4703 16.5652 30.1337 24.0207 30.1337H36.4535C36.4535 30.1337 43.4388 30.2466 43.4388 23.3827V12.0336C43.4388 12.0336 44.4993 5.16553 30.7716 5.16553ZM23.8596 9.13407C25.1068 9.13407 26.1148 10.1421 26.1148 11.3893C26.1148 12.6364 25.1068 13.6444 23.8596 13.6444C22.6125 13.6444 21.6044 12.6364 21.6044 11.3893C21.6044 10.1421 22.6125 9.13407 23.8596 9.13407Z" fill="url(#paint0_linear_1457_32326)"/>
<path d="M31.1529 56.6444C44.2889 56.6444 43.4686 50.9479 43.4686 50.9479L43.4539 45.0463H30.9186V43.2744H48.4329C48.4329 43.2744 56.8386 44.2276 56.8386 30.9733C56.8386 17.719 49.5019 18.1891 49.5019 18.1891H45.1234V24.3396C45.1234 24.3396 45.3594 31.6763 37.9038 31.6763H25.471C25.471 31.6763 18.4858 31.5633 18.4858 38.4272V49.7763C18.4858 49.7763 17.4252 56.6444 31.1529 56.6444ZM38.0649 52.6759C36.8177 52.6759 35.8097 51.6678 35.8097 50.4207C35.8097 49.1735 36.8177 48.1655 38.0649 48.1655C39.3121 48.1655 40.3201 49.1735 40.3201 50.4207C40.3201 51.6678 39.3121 52.6759 38.0649 52.6759Z" fill="url(#paint1_linear_1457_32326)"/>
<defs>
<linearGradient id="paint0_linear_1457_32326" x1="502.36" y1="468.169" x2="3066.63" y2="3006.85" gradientUnits="userSpaceOnUse">
<stop stop-color="#387EB8"/>
<stop offset="1" stop-color="#366994"/>
</linearGradient>
<linearGradient id="paint1_linear_1457_32326" x1="752.425" y1="809.609" x2="3506.18" y2="3412.81" gradientUnits="userSpaceOnUse">
<stop stop-color="#FFE052"/>
<stop offset="1" stop-color="#FFC331"/>
</linearGradient>
</defs>
</svg>
