<svg width="55" height="55" viewBox="0 0 55 55" fill="none" xmlns="http://www.w3.org/2000/svg">
<mask id="mask0_658_3084" style="mask-type:alpha" maskUnits="userSpaceOnUse" x="0" y="0" width="55" height="55">
<rect width="55" height="55" fill="#D9D9D9"/>
</mask>
<g mask="url(#mask0_658_3084)">
<path d="M40.425 21.231C40.0096 21.088 39.579 20.9527 39.1358 20.8247C39.2086 20.5274 39.2755 20.2339 39.3349 19.9454C40.3109 15.2081 39.6728 11.3916 37.4939 10.1351C35.4045 8.93025 31.9876 10.1865 28.5367 13.1897C28.2048 13.4785 27.872 13.7843 27.5394 14.1047C27.3178 13.8927 27.0965 13.6878 26.8758 13.4919C23.2591 10.2806 19.6339 8.92733 17.4571 10.1875C15.3698 11.3958 14.7517 14.9836 15.6302 19.4733C15.715 19.9069 15.8142 20.3497 15.9263 20.8C15.4132 20.9456 14.9179 21.1009 14.444 21.2661C10.2038 22.7444 7.49585 25.0613 7.49585 27.4645C7.49585 29.9465 10.4029 32.4361 14.8193 33.9456C15.1679 34.0647 15.5295 34.1774 15.9022 34.2843C15.7812 34.7713 15.676 35.2485 15.5877 35.7139C14.75 40.1256 15.4042 43.6287 17.4859 44.8294C19.6362 46.0694 23.245 44.7948 26.759 41.7231C27.0368 41.4803 27.3155 41.2228 27.5947 40.9529C27.9567 41.3014 28.318 41.6313 28.6775 41.9407C32.0812 44.8697 35.443 46.0525 37.5228 44.8484C39.6709 43.6048 40.3691 39.8417 39.4627 35.2633C39.3935 34.9136 39.3129 34.5564 39.2225 34.1928C39.4759 34.1179 39.7247 34.0406 39.9673 33.9602C44.5586 32.4389 47.5459 29.9797 47.5459 27.4645C47.5459 25.0526 44.7506 22.7201 40.425 21.231ZM39.4292 32.3361C39.2102 32.4086 38.9855 32.4787 38.7565 32.5466C38.2497 30.942 37.5656 29.2357 36.7284 27.4728C37.5273 25.7519 38.1849 24.0674 38.6776 22.4732C39.0873 22.5918 39.4849 22.7168 39.8681 22.8488C43.5743 24.1246 45.835 26.011 45.835 27.4645C45.835 29.0127 43.3935 31.0226 39.4292 32.3361ZM37.7843 35.5956C38.1851 37.6201 38.2423 39.4505 37.9768 40.8814C37.7383 42.1672 37.2586 43.0244 36.6655 43.3677C35.4033 44.0983 32.7042 43.1487 29.7933 40.6437C29.4596 40.3566 29.1234 40.05 28.7862 39.7255C29.9147 38.4913 31.0426 37.0564 32.1434 35.4629C34.0795 35.2911 35.9087 35.0102 37.5675 34.6268C37.6492 34.9563 37.7218 35.2796 37.7843 35.5956ZM21.1498 43.2415C19.9167 43.677 18.9345 43.6895 18.3408 43.3471C17.0775 42.6185 16.5523 39.8059 17.2687 36.033C17.3508 35.6009 17.4484 35.1571 17.561 34.7034C19.2016 35.0662 21.0174 35.3273 22.9582 35.4846C24.0664 37.0439 25.2268 38.4771 26.3962 39.7321C26.1407 39.9788 25.8862 40.2136 25.6331 40.4349C24.0793 41.7931 22.5221 42.7568 21.1498 43.2415ZM15.3727 32.3266C13.4198 31.6592 11.807 30.7917 10.7016 29.845C9.70822 28.9943 9.2067 28.1498 9.2067 27.4645C9.2067 26.0061 11.3809 24.146 15.0072 22.8817C15.4472 22.7283 15.9078 22.5837 16.3857 22.4479C16.8869 24.0781 17.5443 25.7826 18.3377 27.5061C17.5341 29.2553 16.8673 30.9869 16.3612 32.6362C16.0205 32.5382 15.6903 32.4351 15.3727 32.3266ZM17.3092 19.1447C16.5566 15.2981 17.0564 12.3964 18.3143 11.6682C19.6542 10.8925 22.617 11.9985 25.7397 14.7713C25.9393 14.9485 26.1397 15.134 26.3407 15.3259C25.177 16.5754 24.0272 17.9979 22.9289 19.548C21.0453 19.7225 19.2423 20.003 17.5845 20.3785C17.4803 19.9593 17.388 19.5474 17.3092 19.1447ZM34.585 23.4105C34.1887 22.726 33.7819 22.0577 33.3671 21.4076C34.6449 21.5691 35.8693 21.7836 37.019 22.046C36.6738 23.1522 36.2436 24.3089 35.7372 25.4946C35.3739 24.8049 34.9896 24.1095 34.585 23.4105ZM27.54 16.5486C28.3291 17.4036 29.1194 18.3582 29.8968 19.3938C29.1135 19.3568 28.3204 19.3376 27.5209 19.3376C26.7289 19.3376 25.9417 19.3564 25.1632 19.3928C25.9413 18.3667 26.7385 17.4134 27.54 16.5486ZM20.4498 23.4224C20.054 24.1088 19.6769 24.8004 19.3193 25.4934C18.821 24.3117 18.3948 23.1498 18.0466 22.0279C19.1893 21.7722 20.4078 21.5631 21.6776 21.4046C21.257 22.0607 20.8468 22.7341 20.4498 23.4224ZM21.7141 33.6464C20.4023 33.5001 19.1654 33.3017 18.023 33.0531C18.3768 31.9111 18.8124 30.7244 19.3212 29.5173C19.6797 30.2097 20.0583 30.9017 20.4566 31.5896C20.8623 32.2904 21.2827 32.9769 21.7141 33.6464ZM27.5873 38.5009C26.7764 37.626 25.9676 36.6582 25.1776 35.6172C25.9445 35.6473 26.7263 35.6627 27.5209 35.6627C28.3372 35.6627 29.1442 35.6443 29.9385 35.6089C29.1586 36.6687 28.3711 37.638 27.5873 38.5009ZM35.7535 29.4558C36.2888 30.6759 36.74 31.8564 37.0983 32.9789C35.9371 33.2438 34.6834 33.4572 33.3624 33.6158C33.7782 32.9569 34.1886 32.2771 34.5918 31.5778C34.9998 30.8704 35.3872 30.1618 35.7535 29.4558ZM33.1098 30.7231C32.4838 31.8086 31.841 32.8448 31.1885 33.823C30.0001 33.908 28.7723 33.9517 27.5209 33.9517C26.2745 33.9517 25.0622 33.913 23.8948 33.8373C23.216 32.8463 22.5593 31.807 21.9372 30.7324C21.3168 29.6608 20.7459 28.5801 20.2285 27.5055C20.7458 26.4284 21.3153 25.3466 21.9321 24.2769L21.932 24.2771C22.5505 23.2046 23.2014 22.1703 23.874 21.1855C25.0651 21.0955 26.2864 21.0485 27.5208 21.0485C28.7607 21.0485 29.9837 21.0959 31.1745 21.1867C31.8367 22.1643 32.4833 23.1952 33.1042 24.2678C33.7322 25.3526 34.309 26.4272 34.8307 27.4812C34.3106 28.5533 33.735 29.6389 33.1098 30.7231ZM36.6392 11.6173C37.9804 12.3907 38.5019 15.5099 37.6593 19.6001C37.6056 19.8611 37.545 20.1269 37.4793 20.3963C35.8177 20.0129 34.0134 19.7276 32.1243 19.5504C31.0238 17.9833 29.8834 16.5585 28.7388 15.3251C29.0465 15.0291 29.3538 14.7468 29.6599 14.4803C32.6166 11.9072 35.3801 10.8913 36.6392 11.6173ZM27.5209 23.8882C29.496 23.8882 31.0972 25.4893 31.0972 27.4645C31.0972 29.4396 29.496 31.0408 27.5209 31.0408C25.5457 31.0408 23.9445 29.4396 23.9445 27.4645C23.9445 25.4893 25.5457 23.8882 27.5209 23.8882Z" fill="#00D8FF"/>
</g>
</svg>
