<svg width="55" height="55" viewBox="0 0 55 55" fill="none" xmlns="http://www.w3.org/2000/svg">
<mask id="mask0_658_3219" style="mask-type:alpha" maskUnits="userSpaceOnUse" x="0" y="0" width="55" height="55">
<rect width="55" height="55" fill="#D9D9D9"/>
</mask>
<g mask="url(#mask0_658_3219)">
<g clip-path="url(#clip0_658_3219)">
<path d="M43.7559 24.4048C42.1814 24.4137 40.8179 24.7919 39.6744 25.3549C39.2522 24.5193 38.83 23.7891 38.7597 23.2438C38.6805 22.6105 38.5838 22.2233 38.6805 21.4669C38.7772 20.7104 39.217 19.6372 39.217 19.5492C39.2081 19.4701 39.1202 19.083 38.2142 19.0742C37.3083 19.0654 36.5253 19.2502 36.4374 19.4877C36.3494 19.7252 36.1735 20.2705 36.0591 20.8335C35.9008 21.6604 34.2471 24.5896 33.3059 26.1289C32.998 25.5308 32.7341 25.003 32.6812 24.5807C32.6021 23.9474 32.5053 23.5603 32.6021 22.8039C32.6989 22.0473 33.1387 20.9743 33.1387 20.8863C33.1299 20.8071 33.042 20.4201 32.136 20.4113C31.2299 20.4025 30.4471 20.5872 30.3592 20.8247C30.2712 21.0622 30.1744 21.6252 29.9809 22.1706C29.7961 22.7159 27.597 27.6067 27.0253 28.8822C26.735 29.5331 26.48 30.0521 26.2952 30.4039C26.1104 30.7558 26.2864 30.4303 26.2688 30.4655C26.1104 30.7646 26.0225 30.9317 26.0225 30.9317V30.9406C25.8993 31.1605 25.7674 31.3715 25.7057 31.3715C25.6617 31.3715 25.5738 30.7822 25.7233 29.973C26.0488 28.2752 26.8404 25.6276 26.8317 25.5309C26.8317 25.4869 26.9812 25.0206 26.3215 24.7832C25.6793 24.5457 25.4507 24.9415 25.3978 24.9415C25.3451 24.9415 25.3011 25.0822 25.3011 25.0822C25.3011 25.0822 26.0136 22.1004 23.9376 22.1004C22.6358 22.1004 20.8413 23.5166 19.9529 24.8096C19.3899 25.1175 18.1936 25.7684 16.927 26.4634C16.4432 26.7272 15.9418 27.0087 15.4668 27.2638L15.3701 27.1581C12.8543 24.4752 8.20106 22.5752 8.39458 18.9687C8.46495 17.658 8.92236 14.2011 17.3318 10.014C24.2193 6.58342 29.7346 7.52463 30.6933 9.61816C32.0568 12.6089 27.7466 18.1682 20.5864 18.9687C17.8595 19.2766 16.4257 18.221 16.0651 17.8252C15.6868 17.4117 15.6341 17.3941 15.4933 17.4733C15.2646 17.5965 15.4054 17.9659 15.4933 18.1858C15.7044 18.74 16.5841 19.7252 18.0795 20.2178C19.39 20.6488 22.592 20.8863 26.4624 19.3909C30.799 17.7108 34.1856 13.0487 33.1916 9.15195C32.18 5.1848 25.6003 3.88294 19.3813 6.09082C15.678 7.41028 11.6668 9.46862 8.78162 12.1691C5.35104 15.371 4.80567 18.1682 5.03437 19.3293C5.83493 23.4724 11.5437 26.1729 13.8307 28.1697C13.7164 28.2312 13.6108 28.2927 13.5141 28.3456C12.3705 28.9085 8.01634 31.1868 6.92559 33.5969C5.6941 36.3238 7.11911 38.2855 8.06912 38.5494C11.0071 39.3674 14.0155 37.8984 15.6428 35.4794C17.2612 33.0604 17.0678 29.9201 16.3201 28.4863L16.2936 28.4336L17.1908 27.9058C17.7715 27.5627 18.3433 27.2461 18.8446 26.9733C18.5632 27.7386 18.3608 28.6446 18.2553 29.964C18.1321 31.5123 18.7655 33.5178 19.6011 34.3094C19.9706 34.6524 20.4104 34.6613 20.6831 34.6613C21.6507 34.6613 22.0905 33.8607 22.5743 32.902C23.1725 31.7321 23.7002 30.3775 23.7002 30.3775C23.7002 30.3775 23.0405 34.0455 24.8438 34.0455C25.5035 34.0455 26.1632 33.1923 26.4623 32.7525V32.7613C26.4623 32.7613 26.4799 32.7349 26.5151 32.6733C26.552 32.6187 26.5872 32.563 26.6206 32.5063V32.4887C26.8845 32.0313 27.4739 30.9845 28.3535 29.2516C29.4881 27.0173 30.579 24.2201 30.579 24.2201C30.579 24.2201 30.6845 24.9062 31.01 26.0322C31.2034 26.7008 31.6257 27.4308 31.9511 28.1433C31.6872 28.5127 31.5289 28.7239 31.5289 28.7239L31.5377 28.7327C31.3267 29.0142 31.0891 29.3134 30.8429 29.6124C29.9456 30.6855 28.8725 31.9083 28.7317 32.2602C28.5646 32.6735 28.5998 32.9814 28.9253 33.2277C29.1628 33.4037 29.585 33.4388 30.0336 33.4037C30.8429 33.3508 31.4058 33.1486 31.6873 33.0253C32.1271 32.867 32.6285 32.6295 33.1123 32.2777C33.992 31.6268 34.5285 30.7032 34.4758 29.4717C34.4494 28.7944 34.2295 28.1259 33.9568 27.4925C34.036 27.3782 34.1152 27.2637 34.1943 27.1407C35.5841 25.1086 36.6573 22.8744 36.6573 22.8744C36.6573 22.8744 36.7628 23.5606 37.0883 24.6865C37.2553 25.2583 37.5897 25.8829 37.8888 26.4986C36.5869 27.563 35.7688 28.7945 35.4873 29.6037C34.9684 31.0991 35.373 31.7764 36.1383 31.9348C36.4812 32.0051 36.9739 31.8468 37.3433 31.6885C37.8007 31.5389 38.3549 31.2838 38.8651 30.9056C39.7448 30.2547 40.5892 29.3486 40.5453 28.126C40.5189 27.563 40.3693 27.0088 40.167 26.481C41.2753 26.0236 42.7091 25.7597 44.53 25.9796C48.4444 26.4371 49.2185 28.8824 49.069 29.9028C48.9195 30.9233 48.1014 31.4862 47.8286 31.6621C47.5559 31.8292 47.468 31.8909 47.4944 32.0139C47.5296 32.1988 47.6527 32.1899 47.8902 32.1548C48.2157 32.1019 49.9486 31.3191 50.0189 29.4368C50.1245 27.0174 47.8286 24.3785 43.7559 24.4048ZM13.5668 34.5822C12.2738 35.9984 10.4529 36.535 9.67885 36.0776C8.84319 35.5938 9.16857 33.5091 10.7608 32.0049C11.7284 31.0901 12.9863 30.2456 13.8131 29.7266C13.9979 29.6123 14.2793 29.4452 14.6136 29.2428C14.6664 29.2077 14.7016 29.19 14.7016 29.19C14.7631 29.1549 14.8335 29.1109 14.9039 29.0669C15.4932 31.2132 14.9303 33.0956 13.5668 34.5822ZM23.0229 28.1521C22.5743 29.2516 21.6243 32.0753 21.0525 31.9169C20.5598 31.785 20.2609 29.6475 20.9557 27.5363C21.3075 26.4719 22.0552 25.2053 22.495 24.7126C23.2076 23.9209 23.9816 23.6571 24.1752 23.9825C24.4039 24.4048 23.3044 27.466 23.0229 28.1521ZM30.8253 31.8817C30.6318 31.9786 30.4558 32.0489 30.3767 31.9962C30.3151 31.961 30.4557 31.829 30.4557 31.829C30.4557 31.829 31.4321 30.7823 31.8192 30.2985C32.0391 30.0171 32.303 29.6916 32.5845 29.3221V29.4276C32.5846 30.6942 31.3707 31.5387 30.8253 31.8817ZM36.8419 30.5095C36.7012 30.4039 36.7188 30.0785 37.1938 29.0581C37.3786 28.6535 37.8007 27.9761 38.5308 27.334C38.6188 27.5979 38.6716 27.8529 38.6627 28.0905C38.654 29.6738 37.5281 30.2632 36.8419 30.5095Z" fill="#CF649A"/>
</g>
</g>
<defs>
<clipPath id="clip0_658_3219">
<rect width="45.0373" height="33.778" fill="white" transform="translate(5 5)"/>
</clipPath>
</defs>
</svg>
