<svg width="55" height="55" viewBox="0 0 55 55" fill="none" xmlns="http://www.w3.org/2000/svg">
<mask id="mask0_658_3229" style="mask-type:alpha" maskUnits="userSpaceOnUse" x="0" y="0" width="55" height="55">
<rect width="55" height="55" fill="#D9D9D9"/>
</mask>
<g mask="url(#mask0_658_3229)">
<path d="M42.2904 13.8446C42.2595 13.6193 42.0622 13.4948 41.8992 13.4811C41.7365 13.4674 38.2926 13.2122 38.2926 13.2122C38.2926 13.2122 35.9008 10.8377 35.6385 10.575C35.3757 10.3122 34.8628 10.3921 34.6637 10.4508C34.6342 10.4594 34.1411 10.6117 33.3251 10.864C32.5261 8.56508 31.1162 6.45226 28.6355 6.45226C28.5671 6.45226 28.4966 6.45514 28.426 6.45909C27.7206 5.52614 26.8466 5.12085 26.0918 5.12085C20.3134 5.12085 17.5527 12.3444 16.6871 16.0154C14.4418 16.7112 12.8465 17.2057 12.6428 17.2698C11.3895 17.6628 11.3499 17.7024 11.1854 18.8834C11.0612 19.7775 7.78186 45.1386 7.78186 45.1386L33.3356 49.9265L47.1816 46.9311C47.1816 46.9311 42.321 14.07 42.2904 13.8446ZM31.9127 11.301C31.271 11.4996 30.5414 11.7253 29.7506 11.9701C29.7513 11.8178 29.752 11.6677 29.752 11.504C29.752 10.075 29.5537 8.92466 29.2355 8.01258C30.5137 8.17311 31.3649 9.62726 31.9127 11.301ZM27.65 8.29585C28.0053 9.18634 28.2363 10.4641 28.2363 12.1886C28.2363 12.2768 28.2356 12.3574 28.2349 12.4391C26.8286 12.8746 25.3007 13.3476 23.7692 13.822C24.6291 10.5033 26.2409 8.90055 27.65 8.29585ZM25.9331 6.67074C26.1825 6.67074 26.4338 6.75532 26.6742 6.92089C24.8223 7.7923 22.8373 9.98719 21.999 14.3701C20.7738 14.7495 19.5763 15.1203 18.4691 15.4633C19.451 12.1202 21.7827 6.67074 25.9331 6.67074Z" fill="#95BF46"/>
<path d="M41.8974 13.4812C41.7347 13.4675 38.2908 13.2123 38.2908 13.2123C38.2908 13.2123 35.899 10.8378 35.6366 10.575C35.5384 10.4771 35.4059 10.4271 35.2673 10.4055L33.3352 49.9262L47.1798 46.9312C47.1798 46.9312 42.3192 14.07 42.2886 13.8447C42.2577 13.6194 42.0604 13.4949 41.8974 13.4812Z" fill="#5E8E3E"/>
<path d="M28.6393 21.1315L26.9321 26.2099C26.9321 26.2099 25.4362 25.4115 23.6027 25.4115C20.9147 25.4115 20.7794 27.0986 20.7794 27.5236C20.7794 29.8431 26.8256 30.7318 26.8256 36.1646C26.8256 40.4389 24.1145 43.1913 20.459 43.1913C16.0725 43.1913 13.8293 40.4612 13.8293 40.4612L15.0038 36.5807C15.0038 36.5807 17.3096 38.5604 19.2554 38.5604C20.5267 38.5604 21.0439 37.5594 21.0439 36.828C21.0439 33.8024 16.0836 33.6674 16.0836 28.696C16.0836 24.5117 19.0869 20.4624 25.1494 20.4624C27.4853 20.4624 28.6393 21.1315 28.6393 21.1315Z" fill="white"/>
</g>
</svg>
