<svg width="55" height="55" viewBox="0 0 55 55" fill="none" xmlns="http://www.w3.org/2000/svg">
<mask id="mask0_658_3338" style="mask-type:alpha" maskUnits="userSpaceOnUse" x="0" y="0" width="55" height="55">
<rect width="55" height="55" fill="#D9D9D9"/>
</mask>
<g mask="url(#mask0_658_3338)">
<g clip-path="url(#clip0_658_3338)">
<path fill-rule="evenodd" clip-rule="evenodd" d="M5 27.518C5 36.4314 10.1794 44.1345 17.6911 47.784L6.94934 18.354C5.70093 21.1534 5 24.2527 5 27.518ZM42.7202 26.3821C42.7202 23.5982 41.7195 21.6714 40.8638 20.1724C39.7223 18.316 38.6513 16.7453 38.6513 14.8902C38.6513 12.8199 40.2206 10.893 42.4331 10.893C42.533 10.893 42.6273 10.9057 42.7244 10.9113C38.7188 7.24065 33.3803 5 27.5182 5C19.6505 5 12.7301 9.03659 8.70332 15.1492C9.23252 15.1661 9.73076 15.1759 10.153 15.1759C12.5077 15.1759 16.1544 14.8902 16.1544 14.8902C17.3676 14.8184 17.5112 16.6031 16.298 16.7452C16.298 16.7452 15.0777 16.8888 13.7209 16.9606L21.9208 41.3519L26.8497 26.5721L23.3423 16.9606C22.1291 16.8888 20.9792 16.7452 20.9792 16.7452C19.766 16.6735 19.9081 14.8184 21.1228 14.8902C21.1228 14.8902 24.8413 15.1759 27.0538 15.1759C29.4085 15.1759 33.0552 14.8902 33.0552 14.8902C34.2698 14.8184 34.412 16.6031 33.1988 16.7452C33.1988 16.7452 31.9771 16.8888 30.6217 16.9606L38.7596 41.1661L41.0074 33.6615C41.9785 30.5454 42.7202 28.3089 42.7202 26.3821ZM47.2787 16.7147C47.3758 17.4325 47.4307 18.201 47.4307 19.03C47.4307 21.3143 47.0029 23.8829 45.7178 27.0961L38.8396 46.9821C45.5349 43.0793 50.0373 35.8252 50.0373 27.5184C50.0373 23.6028 49.0366 19.9223 47.2787 16.7147ZM27.9137 29.4878L21.1565 49.1205C23.1748 49.7145 25.3085 50.0382 27.5182 50.0382C30.1403 50.0382 32.6555 49.585 34.9961 48.7616C34.937 48.6645 34.8807 48.5632 34.8356 48.452L27.9137 29.4878Z" fill="#00759D"/>
</g>
</g>
<defs>
<clipPath id="clip0_658_3338">
<rect width="45.0373" height="45.0373" fill="white" transform="translate(5 5)"/>
</clipPath>
</defs>
</svg>
